# xmcd
#
# Track frame offsets:
#	150
#	11428
#	24800
#	38950
#	49968
#	66095
#	84288
#	99658
#	114898
#
# Disc length: 1691 seconds
#
# Revision: 0
# Processed by: cddbd v1.5.2PL0 Copyright (c) Steve Scherf et al.
# Submitted via: dBpowerAMP V4.0
#
DISCID=61069909
DTITLE=Various Artist - CDX Volume 25
DYEAR=1900
DGENRE=
TTITLE0=Collin Raye - Every Second
TTITLE1=Jim Lauderdale - I Wasn't Fooling Around
TTITLE2=Diamond Rio - Norma Jean Riley
TTITLE3=Mark Chesnutt - Old Flames Have New Names
TTITLE4=Ray Stevens - Power Tools
TTITLE5=Michelle Wright - Take It Like A Man
TTITLE6=Linda Davis - There's Something 'Bout Loving You
TTITLE7=Pirates Of The Mississippi - 'Til I'm Holding You Again
TTITLE8=Forester Sisters - What'll You Do About Me
EXTD=
EXTT0=
EXTT1=
EXTT2=
EXTT3=
EXTT4=
EXTT5=
EXTT6=
EXTT7=
EXTT8=
PLAYORDER=
